# xmcd
#
# Track frame offsets: 
#        150
#        30680
#        47569
#        72465
#        101340
#        122291
#        149546
#        175694
#        195709
#        221739
#        250209
#        285223
#        317643
#
# Disc length: 4502 seconds
#
# Revision: 0
# Processed by: cddbd v1.5.2PL0 Copyright (c) Steve Scherf et al.
# Submitted via: ExactAudioCopyFreeDBPlugin 1.0
#
DISCID=b711940d
DTITLE=Israel Houghton and New Breed - Decade - The Best Of Israel Hough
DTITLE=ton and New Breed
DYEAR=1900
DGENRE=Gospel
TTITLE0=Saved By Grace
TTITLE1=Just Wanna Say
TTITLE2=With Long Life
TTITLE3=Nothing Else Matters
TTITLE4=Love God Love People
TTITLE5=Going To Another Level
TTITLE6=I Know Who I Am
TTITLE7=Say So
TTITLE8=The Power Of One (Change The World)
TTITLE9=You Hold My World
TTITLE10=If Not For Your Grace
TTITLE11=Another Breakthrough
TTITLE12=Moving Forward (Live)
EXTD=
EXTT0=
EXTT1=
EXTT2=
EXTT3=
EXTT4=
EXTT5=
EXTT6=
EXTT7=
EXTT8=
EXTT9=
EXTT10=
EXTT11=
EXTT12=
PLAYORDER=
